<svg width="21" height="24" viewBox="0 0 21 24" fill="none" xmlns="http://www.w3.org/2000/svg">
<path d="M14.1956 11.5506C14.1651 11.5938 14.1415 11.64 14.1268 11.6872C14.1121 11.7314 14.1052 11.7835 14.1052 11.8414V18.5177C14.1052 18.7407 14.061 18.9539 13.9745 19.1514C13.888 19.3479 13.7613 19.5257 13.5953 19.678L9.3724 23.5777C9.13955 23.7938 8.85952 23.9294 8.5638 23.9785C8.26904 24.0286 7.96054 23.9913 7.6697 23.8636C7.39164 23.7417 7.16371 23.5531 7.0006 23.3173L6.97702 23.2839C6.81294 23.0324 6.72157 22.7347 6.72157 22.4173V11.8414C6.72157 11.7835 6.71469 11.7324 6.69995 11.6872C6.68522 11.643 6.66262 11.5978 6.63118 11.5526L0.289982 2.48284C0.118042 2.23721 0.021756 1.96112 0.00309288 1.6811C-0.0145926 1.4001 0.043377 1.11321 0.181912 0.849888C0.319466 0.585585 0.519911 0.373374 0.762582 0.226961C1.00625 0.0786015 1.28626 0 1.58298 0H19.2398C19.5375 0 19.8175 0.079585 20.0602 0.226961C20.3029 0.37434 20.5043 0.586566 20.6408 0.849888C20.7784 1.11419 20.8374 1.39912 20.8197 1.6811C20.802 1.96211 20.7047 2.23818 20.5328 2.48382L14.1916 11.5515L14.1956 11.5506Z" fill="black"/>
</svg>
