<svg width="40" height="40" viewBox="0 0 40 40" fill="none" xmlns="http://www.w3.org/2000/svg">
<g clip-path="url(#clip0_63_5604)">
<circle cx="20" cy="20" r="20" fill="#DADADA" fill-opacity="0.15"/>
<path d="M12.62 26.365C13.64 25.6175 14.78 25.0281 16.04 24.5969C17.3 24.1656 18.62 23.95 20 23.95C21.38 23.95 22.7 24.1656 23.96 24.5969C25.22 25.0281 26.36 25.6175 27.38 26.365C28.08 25.5792 28.625 24.6879 29.015 23.6912C29.405 22.6946 29.6 21.6308 29.6 20.5C29.6 17.9508 28.665 15.7802 26.795 13.9881C24.925 12.196 22.66 11.3 20 11.3C17.34 11.3 15.075 12.196 13.205 13.9881C11.335 15.7802 10.4 17.9508 10.4 20.5C10.4 21.6308 10.595 22.6946 10.985 23.6912C11.375 24.6879 11.92 25.5792 12.62 26.365ZM20 21.65C18.82 21.65 17.825 21.2619 17.015 20.4856C16.205 19.7094 15.8 18.7558 15.8 17.625C15.8 16.4942 16.205 15.5406 17.015 14.7644C17.825 13.9881 18.82 13.6 20 13.6C21.18 13.6 22.175 13.9881 22.985 14.7644C23.795 15.5406 24.2 16.4942 24.2 17.625C24.2 18.7558 23.795 19.7094 22.985 20.4856C22.175 21.2619 21.18 21.65 20 21.65ZM20 32C18.34 32 16.78 31.6981 15.32 31.0944C13.86 30.4906 12.59 29.6713 11.51 28.6362C10.43 27.6012 9.575 26.3842 8.945 24.985C8.315 23.5858 8 22.0908 8 20.5C8 18.9092 8.315 17.4142 8.945 16.015C9.575 14.6158 10.43 13.3988 11.51 12.3637C12.59 11.3288 13.86 10.5094 15.32 9.90563C16.78 9.30187 18.34 9 20 9C21.66 9 23.22 9.30187 24.68 9.90563C26.14 10.5094 27.41 11.3288 28.49 12.3637C29.57 13.3988 30.425 14.6158 31.055 16.015C31.685 17.4142 32 18.9092 32 20.5C32 22.0908 31.685 23.5858 31.055 24.985C30.425 26.3842 29.57 27.6012 28.49 28.6362C27.41 29.6713 26.14 30.4906 24.68 31.0944C23.22 31.6981 21.66 32 20 32Z" fill="url(#paint0_linear_63_5604)"/>
</g>
<defs>
<linearGradient id="paint0_linear_63_5604" x1="8" y1="20.5" x2="28.7273" y2="20.5" gradientUnits="userSpaceOnUse">
<stop stop-color="#E54D4D"/>
<stop offset="1" stop-color="#A342FF"/>
</linearGradient>
<clipPath id="clip0_63_5604">
<rect width="40" height="40" fill="white"/>
</clipPath>
</defs>
</svg>
