<svg width="20" height="20" viewBox="0 0 20 20" fill="none" xmlns="http://www.w3.org/2000/svg">
<path d="M9.95829 15.0001C10.25 15.0001 10.4965 14.8994 10.6979 14.698C10.8993 14.4966 11 14.2501 11 13.9584C11 13.6667 10.8993 13.4202 10.6979 13.2188C10.4965 13.0174 10.25 12.9167 9.95829 12.9167C9.66663 12.9167 9.4201 13.0174 9.21871 13.2188C9.01732 13.4202 8.91663 13.6667 8.91663 13.9584C8.91663 14.2501 9.01732 14.4966 9.21871 14.698C9.4201 14.8994 9.66663 15.0001 9.95829 15.0001ZM9.20829 11.7917H10.75C10.75 11.3334 10.802 10.9723 10.9062 10.7084C11.0104 10.4445 11.3055 10.0834 11.7916 9.62508C12.1527 9.26397 12.4375 8.92022 12.6458 8.59383C12.8541 8.26744 12.9583 7.87508 12.9583 7.41675C12.9583 6.63897 12.6736 6.04175 12.1041 5.62508C11.5347 5.20842 10.8611 5.00008 10.0833 5.00008C9.29163 5.00008 8.64927 5.20842 8.15621 5.62508C7.66315 6.04175 7.3194 6.54175 7.12496 7.12508L8.49996 7.66675C8.5694 7.41675 8.72565 7.14592 8.96871 6.85425C9.21177 6.56258 9.58329 6.41675 10.0833 6.41675C10.5277 6.41675 10.8611 6.53828 11.0833 6.78133C11.3055 7.02439 11.4166 7.29175 11.4166 7.58342C11.4166 7.86119 11.3333 8.12161 11.1666 8.36467C11 8.60772 10.7916 8.83342 10.5416 9.04175C9.93052 9.58342 9.55552 9.99314 9.41663 10.2709C9.27774 10.5487 9.20829 11.0556 9.20829 11.7917ZM9.99996 18.3334C8.84718 18.3334 7.76385 18.1147 6.74996 17.6772C5.73607 17.2397 4.85413 16.6459 4.10413 15.8959C3.35413 15.1459 2.76038 14.264 2.32288 13.2501C1.88538 12.2362 1.66663 11.1529 1.66663 10.0001C1.66663 8.8473 1.88538 7.76397 2.32288 6.75008C2.76038 5.73619 3.35413 4.85425 4.10413 4.10425C4.85413 3.35425 5.73607 2.7605 6.74996 2.323C7.76385 1.8855 8.84718 1.66675 9.99996 1.66675C11.1527 1.66675 12.2361 1.8855 13.25 2.323C14.2638 2.7605 15.1458 3.35425 15.8958 4.10425C16.6458 4.85425 17.2395 5.73619 17.677 6.75008C18.1145 7.76397 18.3333 8.8473 18.3333 10.0001C18.3333 11.1529 18.1145 12.2362 17.677 13.2501C17.2395 14.264 16.6458 15.1459 15.8958 15.8959C15.1458 16.6459 14.2638 17.2397 13.25 17.6772C12.2361 18.1147 11.1527 18.3334 9.99996 18.3334ZM9.99996 16.6667C11.8611 16.6667 13.4375 16.0209 14.7291 14.7292C16.0208 13.4376 16.6666 11.8612 16.6666 10.0001C16.6666 8.13897 16.0208 6.56258 14.7291 5.27092C13.4375 3.97925 11.8611 3.33341 9.99996 3.33341C8.13885 3.33341 6.56246 3.97925 5.27079 5.27092C3.97913 6.56258 3.33329 8.13897 3.33329 10.0001C3.33329 11.8612 3.97913 13.4376 5.27079 14.7292C6.56246 16.0209 8.13885 16.6667 9.99996 16.6667Z" fill="black"/>
</svg>
